<svg xmlns="http://www.w3.org/2000/svg" width="45.797" height="26.663" viewBox="0 0 45.797 26.663"><defs><style>.a{fill:#0f2d20;}</style></defs><g transform="translate(-9 5)"><path class="a" d="M-217.6,374.139v-.048c0-.048,0-.048-.048-.1,0-.048-.048-.048-.048-.1a.047.047,0,0,0-.048-.048c-.048-.048-.048-.1-.1-.1h0l-4.316-4.316a.885.885,0,0,0-.575-.24h-11.8a.794.794,0,0,0-.575.24l-4.316,4.316h0c-.048.048-.048.1-.1.1l-.048.048c0,.048-.048.048-.048.1s0,.048-.048.1v18.271a.84.84,0,0,0,.815.815h3.069a.432.432,0,0,0,.24-.048,3.253,3.253,0,0,0,3.213,2.733,3.2,3.2,0,0,0,3.165-2.685h12.66a3.237,3.237,0,0,0,3.165,2.685,3.2,3.2,0,0,0,3.165-2.685h2.446a.84.84,0,0,0,.815-.815v-8.488a7.574,7.574,0,0,0-1.774-5.227,5.787,5.787,0,0,0-4.364-1.822h-4.508v-2.542A.176.176,0,0,1-217.6,374.139Zm-10.358-3.309h4.891l2.685,2.685h-7.577Zm-6.282,0h4.6v2.685h-7.289Zm1.822,23.45A1.6,1.6,0,0,1-234,392.7a1.6,1.6,0,0,1,1.582-1.583,1.6,1.6,0,0,1,1.583,1.583A1.6,1.6,0,0,1-232.415,394.28Zm13.14-16.64V391.6h-9.831a.359.359,0,0,0-.24.048,3.212,3.212,0,0,0-3.069-2.206,3.275,3.275,0,0,0-3.069,2.206.889.889,0,0,0-.336-.1h-2.206V375.1h18.8v2.542Zm5.851,16.64a1.6,1.6,0,0,1-1.583-1.582,1.6,1.6,0,0,1,1.583-1.583,1.6,1.6,0,0,1,1.583,1.583A1.6,1.6,0,0,1-213.425,394.28Zm.336-15.825c2.781,0,4.508,2.062,4.508,5.419v7.673h-1.774a3.233,3.233,0,0,0-3.069-2.158,3.217,3.217,0,0,0-3.021,2.158h-1.1V378.455Zm-35.295-.384h6.282a.84.84,0,0,1,.815.815.84.84,0,0,1-.815.815h-6.282a.84.84,0,0,1-.815-.815A.84.84,0,0,1-248.384,378.072Zm-4.316,5.275a.84.84,0,0,1,.815-.815h9.735a.84.84,0,0,1,.815.815.84.84,0,0,1-.815.815h-9.735A.808.808,0,0,1-252.7,383.347Zm11.413,4.46a.84.84,0,0,1-.815.815h-6.282a.84.84,0,0,1-.815-.815.84.84,0,0,1,.815-.815h6.282A.78.78,0,0,1-241.287,387.807Zm7.289-4.364a.84.84,0,0,1,.815-.815h6.33l-1.1-1.1a.783.783,0,0,1,0-1.151.783.783,0,0,1,1.151,0l2.494,2.494h0c.048.048.048.1.1.1a.047.047,0,0,0,.048.048c0,.048.048.048.048.1s0,.048.048.1v.384c0,.048,0,.048-.048.1,0,.048-.048.048-.048.1a.047.047,0,0,1-.048.048c-.048.048-.048.1-.1.1h0l-2.638,2.638a.885.885,0,0,1-.575.24.885.885,0,0,1-.575-.24.783.783,0,0,1,0-1.151l1.247-1.247h-6.33A.706.706,0,0,1-234,383.443Z" transform="translate(261.7 -374.2)"/></g></svg>